# AST/ASF file generated using VICON BodyLanguage
# -----------------------------------------------
:version 1.10
:name VICON
:units
  mass 1.0
  length 0.45
  angle deg
:documentation
   .ast/.asf automatically generated from VICON data using
   VICON BodyBuilder and BodyLanguage model FoxedUp or BRILLIANT.MOD
:root
   order TX TY TZ RX RY RZ
   axis XYZ
   position 0 0 0  
   orientation 0 0 0 
:bonedata
  begin
     id 1 
     name lhipjoint
     direction 0.589753 -0.68606 0.426044 
     length 2.54082 
     axis 0 0 0  XYZ
  end
  begin
     id 2 
     name lfemur
     direction 0.34202 -0.939693 0  
     length 7.04539  
     axis 0 0 20  XYZ
    dof rx ry rz
    limits (-160.0 20.0)
           (-70.0 70.0)
           (-60.0 70.0)
  end
  begin
     id 3 
     name ltibia
     direction 0.34202 -0.939693 0   
     length 7.83772   
     axis 0 0 20   XYZ
    dof rx
    limits (-10.0 170.0)
  end
  begin
     id 4 
     name lfoot
     direction 0.0596604 -0.163915 0.984669   
     length 2.39542   
     axis -90 7.62852e-016 20   XYZ
    dof rx rz
    limits (-45.0 90.0)
           (-70.0 20.0)
  end
  begin
     id 5 
     name ltoes
     direction 1.53514e-011 -4.21954e-011 1   
     length 1.2047   
     axis -90 7.62852e-016 20   XYZ
    dof rx
    limits (-90.0 20.0)
  end
  begin
     id 6 
     name rhipjoint
     direction -0.580585 -0.69168 0.429534   
     length 2.52018  
     axis 0 0 0  XYZ 
  end
  begin
     id 7 
     name rfemur
     direction -0.34202 -0.939693 0   
     length 7.0101   
     axis 0 0 -20   XYZ
    dof rx ry rz
    limits (-160.0 20.0)
           (-70.0 70.0)
           (-70.0 60.0)
  end
  begin
     id 8 
     name rtibia
     direction -0.34202 -0.939693 0   
     length 7.70628   
     axis 0 0 -20   XYZ
    dof rx
    limits (-10.0 170.0)
 end
 begin
     id 9 
     name rfoot
     direction -0.0696237 -0.19129 0.979061   
     length 2.52466  
     axis -90 -7.62852e-016 -20   XYZ
    dof rx rz
    limits (-45.0 90.0)
           (-20.0 70.0)
  end
  begin
     id 10 
     name rtoes
     direction -1.53519e-011 -4.21793e-011 1   
     length 1.266   
     axis -90 -7.62852e-016 -20   XYZ
    dof rx
    limits (-90.0 20.0)
  end
  begin
     id 11 
     name lowerback
     direction 0.00381965 0.995707 -0.0924856   
     length 2.20825   
     axis 0 0 0   XYZ
    dof rx ry rz
    limits (-20.0 45.0)
           (-30.0 30.0)
           (-30.0 30.0)
  end
  begin
     id 12 
     name upperback
     direction -0.0139043 0.999634 -0.0231929   
     length 2.21517   
     axis 0 0 0   XYZ
    dof rx ry rz
    limits (-20.0 45.0)
           (-30.0 30.0)
           (-30.0 30.0)
  end
  begin
     id 13 
     name thorax
     direction -0.0143933 0.999691 0.0202892   
     length 2.22911   
     axis 0 0 0   XYZ
    dof rx ry rz
    limits (-20.0 45.0)
           (-30.0 30.0)
           (-30.0 30.0)
  end
  begin
     id 14 
     name lowerneck
     direction -0.0251153 0.981819 0.188153   
     length 1.61782   
     axis 0 0 0   XYZ
    dof rx ry rz
    limits (-20.0 45.0)
           (-30.0 30.0)
           (-30.0 30.0)
  end
  begin
     id 15 
     name upperneck
     direction 0.0563891 0.969357 -0.239095   
     length 1.64526   
     axis 0 0 0   XYZ
    dof rx ry rz
    limits (-20.0 45.0)
           (-30.0 30.0)
           (-30.0 30.0)
  end
  begin
     id 16
     name head
     direction 0.0208328 0.99459 -0.101773  
     length 1.67436  
     axis 0 0 0   XYZ
    dof rx ry rz
    limits (-20.0 45.0)
           (-30.0 30.0)
           (-30.0 30.0)
  end
  begin
     id 17 
     name lclavicle
     direction 0.917689 0.397224 0.00772059  
     length 3.31102  
     axis 0 0 0   XYZ
    dof ry rz
    limits (-20.0 10.0)
           (0.0 20.0)
  end
  begin
     id 18 
     name lhumerus
     direction 1 -4.4896e-011 2.32308e-027   
     length 5.25537   
     axis 180 -30 -90   XYZ
    dof rx ry rz
    limits (-60.0 90.0)
           (-90.0 90.0)
           (-90.0 90.0)
  end
  begin
     id 19
     name lradius
     direction 1 -4.49005e-011 -2.04271e-027   
     length 3.38855   
     axis 180 -30 -90   XYZ
    dof rx
    limits (-10.0 170.0)
  end
  begin
     id 20
     name lwrist
     direction 1 -4.48892e-011 2.56952e-028   
     length 1.69428   
     axis -5.12785e-016 90 90   XYZ
    dof ry
    limits (-180.0 0.0)
 end
  begin
     id 21 
     name lhand
     direction 1 -4.48966e-011 5.13905e-028   
     length 0.614516   
     axis -3.27915e-016 90 90   XYZ
    dof rx rz
    limits (-90.0 90.0)
           (-45.0 45.0)
  end
  begin
     id 22 
     name lfingers
     direction 1 -4.48979e-011 1.02781e-027   
     length 0.495439   
     axis -6.5583e-016 90 90   XYZ
    dof rx
    limits (0.0 90.0)
  end
  begin
     id 23
     name lthumb
     direction 0.707107 -6.35001e-011 0.707107   
     length 0.711354   
     axis -90 45 2.85299e-015   XYZ
    dof rx rz
    limits (-45.0 45.0)
           (-45.0 45.0)
  end
  begin
     id 24 
     name rclavicle
     direction -0.938556 0.342765 -0.0403177   
     length 3.27019  
     axis 0 0 0   XYZ 
    dof ry rz
    limits (-10.0 20.0)
           (-20.0 0.0)
  end
  begin
     id 25 
     name rhumerus
     direction -1 -4.48966e-011 2.52291e-027  
     length 5.38183   
     axis 180 30 90   XYZ
    dof rx ry rz
    limits (-90.0 60.0)
           (-90.0 90.0)
           (-90.0 90.0)
  end
  begin
     id 26 
     name rradius
     direction -1 -4.4896e-011 1.5797e-027   
     length 3.16988   
     axis 180 30 90   XYZ
    dof rx
    limits (-10.0 170.0)
  end
  begin
     id 27 
     name rwrist
     direction -1 -4.48947e-011 2.56952e-028   
     length 1.58494   
     axis -5.12785e-016 -90 -90   XYZ
    dof ry
    limits (-180.0 0.0)
  end
  begin
     id 28
     name rhand
     direction -1 -4.49098e-011 5.13905e-028   
     length 0.637679   
     axis -3.27915e-016 -90 -90   XYZ
    dof rx rz
    limits (-90.0 90.0)
           (-45.0 45.0)
  end
  begin
     id 29
     name rfingers
     direction -1 -4.49026e-011 1.02781e-027   
     length 0.514113   
     axis -6.5583e-016 -90 -90   XYZ
    dof rx
    limits (0.0 90.0)
  end
  begin
     id 30
     name rthumb
     direction -0.707107 -6.3491e-011 0.707107   
     length 0.738167   
     axis -90 -45 -2.85299e-015   XYZ
    dof rx rz
    limits (-45.0 45.0)
           (-45.0 45.0)
  end
:hierarchy
  begin
    root lhipjoint rhipjoint lowerback
    lhipjoint lfemur
    lfemur ltibia
    ltibia lfoot
    lfoot ltoes
    rhipjoint rfemur
    rfemur rtibia
    rtibia rfoot
    rfoot rtoes
    lowerback upperback
    upperback thorax
    thorax lowerneck lclavicle rclavicle
    lowerneck upperneck
    upperneck head
    lclavicle lhumerus
    lhumerus lradius
    lradius lwrist
    lwrist lhand lthumb
    lhand lfingers
    rclavicle rhumerus
    rhumerus rradius
    rradius rwrist
    rwrist rhand rthumb
    rhand rfingers
  end

#!OML:ASF H:\Swim\Project 1\Capture day 1\Session 1\swimmer.ASF
:FULLY-SPECIFIED
:DEGREES
932
root 5.85085 10.3666 14.9036 83.4086 -1.09581 -1.65893
lowerback 3.31531 0.490407 -1.14061
upperback -9.64747 0.456742 -1.099
thorax -12.2418 0.271194 -0.618933
lowerneck -30.2526 -5.92015 -7.46466
upperneck 2.62676 -6.48978 11.5006
head 6.09847 -2.27149 4.13808
rclavicle 9.93923e-015 -8.24956e-015
rhumerus 40.1129 35.3377 -36.4292
rradius 123.577
rwrist -27.1836
rhand -48.0017 6.56184
rfingers 7.12502
rthumb -20.67 -22.3575
lclavicle 9.93923e-015 -8.24956e-015
lhumerus 45.0131 -33.8554 27.9419
lradius 124.312
lwrist 21.2834
lhand -45.0385 -334.412
lfingers 7.12502
lthumb -17.8207 414.791
rfemur -1.91784 -21.7985 -2.39984
rtibia 81.7162
rfoot 0.0512816 -1.50594
rtoes -8.69348
lfemur -4.90648 27.7476 -2.17994
ltibia 76.5847
lfoot 12.4561 -3.39547
ltoes 5.25363
933
root 5.84992 10.3678 14.8957 83.3068 -1.12285 -1.64681
lowerback 3.44668 0.474296 -1.13841
upperback -9.61574 0.430062 -1.11822
thorax -12.2862 0.256433 -0.638433
lowerneck -30.1749 -5.93594 -7.49921
upperneck 2.46735 -6.49737 11.5609
head 6.04084 -2.27644 4.16283
rclavicle -3.57812e-015 7.50412e-015
rhumerus 40.0482 35.8353 -35.9332
rradius 123.688
rwrist -26.9051
rhand -48.2697 6.78505
rfingers 7.12502
rthumb -20.9275 -22.106
lclavicle -3.57812e-015 7.50412e-015
lhumerus 45.064 -34.3468 27.3248
lradius 124.434
lwrist 21.2707
lhand -45.4477 -334.15
lfingers 7.12502
lthumb -18.2144 415.017
rfemur -1.95801 -21.9514 -2.45463
rtibia 82.0092
rfoot 0.118355 -1.42822
rtoes -8.56479
lfemur -4.86769 27.9288 -2.11459
ltibia 76.973
lfoot 12.5231 -3.36917
ltoes 5.43399
934
root 5.84896 10.3692 14.8873 83.2061 -1.15872 -1.63309
lowerback 3.5773 0.459473 -1.14311
upperback -9.58407 0.404105 -1.14118
thorax -12.3304 0.242491 -0.65816
lowerneck -30.0902 -5.95351 -7.53384
upperneck 2.29978 -6.50719 11.6225
head 5.97999 -2.28285 4.1877
rclavicle 4.67144e-015 -8.94531e-015
rhumerus 40.009 36.3564 -35.4018
rradius 123.815
rwrist -26.7019
rhand -48.5166 6.97762
rfingers 7.12502
rthumb -21.1647 -21.8871
lclavicle 4.67144e-015 -8.94531e-015
lhumerus 45.1196 -34.8403 26.6875
lradius 124.571
lwrist 21.2772
lhand -45.8339 -333.849
lfingers 7.12502
lthumb -18.5859 415.283
rfemur -2.00047 -22.1337 -2.52996
rtibia 82.3379
rfoot 0.190285 -1.34056
rtoes -8.45366
lfemur -4.81766 28.1185 -2.053
ltibia 77.3671
lfoot 12.5937 -3.34596
ltoes 5.62608
935
root 5.84798 10.3711 14.8784 83.1038 -1.1976 -1.61668
lowerback 3.71237 0.44509 -1.14653
upperback -9.55365 0.378356 -1.16785
thorax -12.3788 0.228316 -0.682692
lowerneck -29.9883 -5.96894 -7.56656
upperneck 2.11409 -6.5143 11.6839
head 5.91071 -2.28893 4.21262
rclavicle -7.35503e-015 4.91992e-015
rhumerus 39.9983 36.904 -34.8384
rradius 123.957
rwrist -26.5766
rhand -48.7578 7.15965
rfingers 7.12502
rthumb -21.3964 -21.6789
lclavicle -7.35503e-015 4.91992e-015
lhumerus 45.1794 -35.3344 26.0346
lradius 124.721
lwrist 21.2952
lhand -46.1922 -333.521
lfingers 7.12502
lthumb -18.9306 415.577
rfemur -2.0394 -22.343 -2.61801
rtibia 82.6962
rfoot 0.272853 -1.22432
rtoes -8.33998
lfemur -4.7564 28.3153 -1.98694
ltibia 77.7703
lfoot 12.6665 -3.34027
ltoes 5.77094
936
root 5.847 10.3733 14.869 83.0006 -1.23553 -1.59828
lowerback 3.85231 0.432443 -1.14442
upperback -9.52249 0.355191 -1.19727
thorax -12.4293 0.214717 -0.713671
lowerneck -29.8955 -5.98764 -7.59961
upperneck 1.93333 -6.52515 11.743
head 5.8446 -2.29669 4.23628
rclavicle 2.98177e-015 2.98177e-016
rhumerus 40.0216 37.469 -34.2401
rradius 124.117
rwrist -26.5333
rhand -48.9954 7.35467
rfingers 7.12502
rthumb -21.6246 -21.4578
lclavicle 2.98177e-015 2.98177e-016
lhumerus 45.254 -35.8257 25.3641
lradius 124.883
lwrist 21.3297
lhand -46.5304 -333.171
lfingers 7.12502
lthumb -19.2558 415.896
rfemur -2.07323 -22.5769 -2.71254
rtibia 83.0779
rfoot 0.363182 -1.0778
rtoes -8.26889
lfemur -4.68574 28.5186 -1.91171
ltibia 78.184
lfoot 12.7421 -3.35709
ltoes 5.86097
937
root 5.84595 10.3758 14.8592 82.8952 -1.27009 -1.57871
lowerback 3.99915 0.42009 -1.13454
upperback -9.49042 0.332767 -1.22977
thorax -12.4831 0.200535 -0.752491
lowerneck -29.8092 -6.00154 -7.61656
upperneck 1.75043 -6.53307 11.7884
head 5.77723 -2.30388 4.25322
rclavicle -7.95139e-016 5.81445e-015
rhumerus 40.0812 38.0484 -33.616
rradius 124.291
rwrist -26.5564
rhand -49.228 7.57805
rfingers 7.12502
rthumb -21.848 -21.2086
lclavicle -7.95139e-016 5.81445e-015
lhumerus 45.3432 -36.3204 24.6719
lradius 125.054
lwrist 21.3689
lhand -46.8548 -332.814
lfingers 7.12502
lthumb -19.5677 416.221
rfemur -2.10066 -22.8296 -2.80877
rtibia 83.479
rfoot 0.460614 -0.912903
rtoes -8.36416
lfemur -4.60486 28.7255 -1.824
ltibia 78.6075
lfoot 12.8199 -3.39654
ltoes 5.91163
